<?xml version="1.0" standalone="no"?>
<!DOCTYPE svg PUBLIC "-//W3C//DTD SVG 20010904//EN"
 "http://www.w3.org/TR/2001/REC-SVG-20010904/DTD/svg10.dtd">
<svg version="1.0" xmlns="http://www.w3.org/2000/svg"
 width="2048.000000pt" height="2048.000000pt" viewBox="0 0 2048.000000 2048.000000"
 preserveAspectRatio="xMidYMid meet">
<metadata>
Created by potrace 1.16, written by Peter Selinger 2001-2019
</metadata>
<g transform="translate(0.000000,2048.000000) scale(0.100000,-0.100000)"
fill="#000000" stroke="none">
<path d="M16430 18673 c-808 -29 -1631 -163 -2469 -404 -671 -193 -1557 -531
-2456 -938 -281 -127 -668 -315 -671 -326 -4 -12 549 -335 574 -335 9 0 96 36
192 81 760 352 1578 655 2446 904 1192 344 2106 485 2882 447 688 -34 1170
-162 1542 -410 186 -124 306 -241 429 -422 133 -194 221 -413 265 -660 130
-728 -129 -1714 -736 -2804 -324 -582 -837 -1318 -1330 -1910 -60 -72 -108
-132 -108 -135 0 -8 349 -421 355 -421 13 0 405 486 621 770 629 828 1132
1696 1429 2465 442 1146 457 2124 44 2847 -220 384 -601 713 -1073 925 -66 30
-213 86 -326 123 -369 123 -693 179 -1160 200 -213 9 -273 10 -450 3z"/>
<path d="M9455 16276 c-898 -527 -1447 -882 -2233 -1443 -1113 -795 -2238
-1714 -3023 -2469 -90 -87 -165 -164 -167 -171 -3 -11 182 -259 312 -416 l39
-49 156 154 c730 720 1564 1446 2331 2029 847 644 1920 1346 2932 1920 131 74
238 137 238 140 0 7 -503 313 -531 324 -8 2 -32 -6 -54 -19z"/>
<path d="M11665 14971 c-344 -105 -881 -434 -1089 -668 l-37 -41 -42 18 c-62
27 -282 67 -442 81 -144 12 -324 8 -492 -12 -52 -6 -96 -10 -98 -8 -2 2 -8 42
-14 89 -26 193 -178 398 -366 491 -73 35 -158 54 -205 46 -43 -8 -192 -118
-250 -185 -183 -207 -338 -594 -313 -778 l5 -41 -88 -58 c-256 -166 -393 -311
-451 -476 -17 -48 -26 -94 -25 -131 l0 -57 -41 -6 c-115 -19 -529 -109 -597
-130 -156 -50 -355 -204 -420 -327 -17 -32 -45 -98 -62 -146 -42 -123 -50
-295 -19 -427 32 -131 88 -241 169 -327 107 -114 191 -159 401 -217 41 -11 76
-22 78 -25 2 -2 -16 -15 -40 -29 -24 -15 -80 -53 -124 -86 -278 -206 -458
-474 -529 -793 -28 -120 -23 -336 9 -476 88 -380 357 -741 742 -992 209 -136
524 -264 778 -314 214 -43 284 -50 507 -50 234 1 383 16 579 60 323 72 631
229 843 430 27 25 52 43 57 39 20 -12 33 -117 26 -209 -12 -157 -68 -337 -145
-467 -36 -60 -236 -332 -346 -469 -82 -103 -96 -169 -69 -331 19 -116 50 -224
101 -347 65 -157 148 -262 259 -328 l50 -29 172 2 c121 1 207 8 291 22 259 45
795 228 1322 451 229 97 288 126 475 233 368 210 1123 755 1328 959 49 49 95
88 102 88 23 0 84 60 106 103 64 125 35 487 -53 660 -103 203 -301 369 -487
408 -77 16 -175 -2 -269 -48 l-72 -36 -33 31 c-17 17 -54 48 -82 70 -38 29
-63 62 -104 137 -133 239 -207 612 -181 907 5 62 10 145 10 185 0 60 3 73 18
77 10 4 39 19 65 36 39 25 53 42 92 123 93 191 128 417 89 574 -16 68 -79 201
-117 249 -31 40 -92 64 -167 64 l-65 0 -1 128 c-1 89 -8 158 -23 232 -51 242
-182 556 -295 706 -7 8 3 52 27 131 72 233 96 431 78 625 -19 199 -75 353
-183 507 -96 136 -166 157 -343 102z m-2635 -428 c69 -80 145 -165 169 -189
24 -24 41 -47 38 -50 -4 -4 -82 -26 -174 -49 -92 -24 -214 -59 -271 -80 -57
-20 -106 -34 -109 -31 -11 11 29 181 63 271 44 112 134 276 152 274 4 0 63
-66 132 -146z m2749 121 c72 -15 95 -159 72 -450 -23 -288 -40 -371 -108 -517
-39 -85 -45 -108 -45 -163 0 -80 31 -146 113 -238 103 -117 154 -208 233 -419
27 -73 86 -299 86 -331 0 -3 -64 -6 -142 -6 -129 0 -228 -9 -278 -25 -15 -5
-20 6 -35 66 -26 106 -82 258 -112 304 -46 70 -175 195 -278 268 -55 40 -119
86 -142 104 -24 18 -79 43 -126 57 -46 14 -91 34 -101 45 -82 90 -408 128
-1026 118 -535 -8 -950 -45 -1559 -138 -178 -27 -326 -48 -328 -45 -5 5 151
145 251 224 295 235 836 442 1322 507 367 49 777 17 855 -66 35 -37 72 -38
105 -1 13 15 46 51 71 80 118 135 540 405 837 537 187 83 264 103 335 89z
m-1082 -1493 c128 -23 211 -104 261 -256 69 -207 37 -463 -93 -731 -67 -138
-197 -270 -355 -359 -224 -127 -441 -164 -825 -141 -165 10 -227 23 -420 90
-283 97 -491 129 -845 130 -278 1 -347 -5 -559 -50 -251 -53 -481 -51 -630 6
-93 36 -230 141 -278 213 -69 102 -108 263 -93 381 18 144 128 301 252 359 78
37 213 72 393 103 83 14 240 43 350 64 353 69 529 94 785 110 91 6 327 26 525
46 198 20 434 40 525 44 205 10 936 3 1007 -9z m605 -439 c96 -128 123 -336
78 -599 -53 -312 -116 -425 -310 -562 -190 -134 -382 -193 -670 -207 -184 -9
-450 18 -450 45 0 4 48 14 108 21 434 50 512 68 687 165 166 92 267 184 366
335 98 148 141 305 141 515 1 112 -20 304 -39 370 -5 18 -3 17 22 -5 15 -14
45 -49 67 -78z m508 -511 c36 -5 177 -13 315 -16 154 -4 254 -10 262 -17 7 -6
13 -29 13 -52 0 -46 -32 -187 -54 -240 -14 -33 -15 -33 -67 -29 -115 8 -267
26 -339 39 -41 8 -119 17 -172 21 -54 3 -98 7 -98 9 0 1 6 33 14 71 8 37 18
105 22 151 6 69 9 82 23 78 9 -3 45 -10 81 -15z m-210 -641 c51 -26 206 -64
345 -85 190 -29 190 -29 188 -51 -22 -201 -25 -260 -20 -442 7 -302 42 -464
146 -677 67 -135 102 -187 214 -308 42 -46 77 -88 77 -93 -1 -5 -76 -46 -168
-91 -171 -85 -668 -353 -917 -496 -77 -44 -222 -126 -322 -183 -100 -56 -259
-149 -355 -207 -164 -99 -528 -294 -528 -283 0 2 13 56 29 118 39 151 45 223
31 359 -15 152 -32 216 -84 319 l-44 86 57 86 c117 174 135 319 38 294 -20 -5
-45 -34 -96 -109 -122 -182 -215 -275 -376 -379 -274 -177 -646 -281 -1010
-282 -600 -2 -1199 230 -1561 605 -162 168 -244 309 -300 519 -25 89 -25 317
-1 413 100 399 474 723 979 847 178 44 286 53 567 47 283 -5 389 -23 630 -103
429 -143 763 -391 988 -736 89 -136 114 -159 183 -160 85 -1 145 69 136 157
-10 89 -131 308 -236 428 -23 26 -40 50 -37 53 2 3 54 0 115 -7 68 -7 219 -10
394 -7 l283 4 120 33 c173 48 194 57 266 111 58 44 162 157 200 218 17 27 20
27 69 2z m1645 -1825 c77 -113 145 -332 163 -524 l8 -84 -87 -84 c-255 -246
-492 -397 -1144 -728 -225 -114 -453 -233 -505 -262 -142 -82 -442 -230 -651
-322 -265 -115 -591 -220 -781 -251 -60 -9 -61 -9 -101 25 -22 19 -44 35 -48
35 -9 0 -116 174 -154 249 -33 66 -90 215 -99 256 -6 29 -5 31 71 65 42 19
185 95 317 168 366 204 536 293 711 372 223 100 1229 603 1460 728 104 58 244
136 310 176 149 88 455 245 474 243 8 -1 33 -29 56 -62z"/>
<path d="M7820 11387 c-57 -16 -128 -64 -174 -118 -51 -60 -71 -126 -71 -234
0 -82 3 -97 33 -157 18 -36 48 -80 68 -97 49 -44 143 -89 232 -112 41 -10 77
-21 79 -23 5 -5 -94 -128 -125 -154 -15 -13 -49 -35 -77 -50 -42 -22 -63 -27
-131 -27 -74 0 -85 3 -133 33 -80 49 -121 41 -121 -27 0 -51 35 -115 91 -165
61 -55 121 -76 216 -76 111 0 193 32 320 125 20 16 22 14 58 -39 67 -101 189
-196 310 -242 281 -105 606 -55 779 120 91 93 119 151 124 257 5 106 -9 156
-45 165 -46 12 -58 -6 -55 -81 8 -194 -102 -303 -335 -336 -179 -25 -422 55
-542 179 -66 68 -91 130 -91 228 l0 81 72 7 c279 26 478 119 548 257 66 129
78 240 35 326 -68 136 -232 178 -453 118 -51 -14 -103 -25 -115 -25 -12 0 -76
16 -142 35 -138 41 -280 54 -355 32z m213 -158 c196 -102 196 -102 255 -103
42 0 68 6 99 23 38 22 50 23 146 19 137 -6 162 -20 154 -84 -11 -100 -81 -181
-189 -222 -95 -36 -247 -55 -382 -49 -264 11 -388 95 -389 262 -1 72 16 107
74 160 42 37 42 38 106 32 45 -5 84 -16 126 -38z"/>
<path d="M9605 10925 c-51 -50 -17 -135 55 -135 53 0 84 27 84 75 0 74 -88
112 -139 60z"/>
<path d="M9043 10816 c-22 -19 -28 -32 -28 -66 0 -80 82 -116 144 -64 25 20
31 34 31 64 0 30 -6 44 -31 64 -38 33 -79 33 -116 2z"/>
<path d="M9640 10563 c-51 -20 -76 -70 -60 -119 14 -43 44 -64 90 -64 89 0
129 103 63 162 -21 20 -70 30 -93 21z"/>
<path d="M13070 9499 c-141 -57 -144 -272 -5 -339 122 -59 265 30 265 164 0
112 -76 187 -187 185 -26 0 -59 -5 -73 -10z"/>
<path d="M12465 9126 c-92 -41 -136 -158 -92 -243 21 -39 71 -81 105 -89 15
-3 33 -8 40 -10 7 -2 33 1 57 7 86 22 146 113 130 198 -20 112 -142 181 -240
137z"/>
<path d="M11782 8789 c-58 -29 -94 -85 -100 -154 -14 -173 185 -272 313 -154
163 150 -14 406 -213 308z"/>
<path d="M11135 8461 c-78 -36 -115 -95 -115 -182 0 -65 29 -122 80 -155 75
-50 168 -42 237 19 44 39 63 82 63 144 0 140 -140 232 -265 174z"/>
<path d="M10416 8129 c-82 -19 -136 -88 -136 -174 0 -86 51 -151 138 -174 61
-17 116 1 168 53 67 67 72 163 12 232 -51 58 -111 78 -182 63z"/>
<path d="M3112 11238 c-233 -273 -471 -564 -597 -733 -79 -104 -202 -264 -274
-355 -257 -322 -643 -879 -843 -1215 -283 -474 -467 -843 -623 -1245 -38 -96
-86 -218 -107 -270 -60 -146 -181 -644 -232 -955 -52 -313 -59 -686 -17 -931
113 -665 451 -1179 1008 -1530 150 -95 464 -245 564 -269 l26 -6 7 129 c8 159
28 297 61 421 14 52 22 97 18 101 -5 4 -37 19 -73 35 -229 98 -465 268 -618
445 -262 303 -379 652 -399 1195 -11 327 36 628 157 1000 26 83 65 202 85 265
82 257 362 851 577 1225 286 499 776 1227 1023 1520 202 240 547 635 653 747
l34 36 -64 84 c-36 45 -111 151 -166 235 -56 83 -105 154 -111 157 -5 3 -45
-36 -89 -86z"/>
<path d="M15985 10676 c-176 -178 -390 -388 -475 -467 -932 -863 -1709 -1501
-2737 -2247 -699 -507 -1602 -1092 -2316 -1502 -70 -40 -130 -76 -132 -80 -2
-3 127 -84 286 -179 l289 -174 319 192 c1056 634 2010 1296 2921 2025 516 414
843 694 1345 1155 221 203 1165 1145 1165 1162 0 11 -327 433 -338 436 -4 1
-151 -143 -327 -321z"/>
<path d="M8980 5676 c-151 -74 -320 -154 -375 -179 -55 -25 -172 -77 -260
-117 -1213 -546 -2409 -935 -3445 -1119 l-205 -37 5 -94 c3 -52 5 -186 5 -297
0 -198 0 -203 20 -203 12 0 110 16 219 35 869 154 1882 455 2876 853 636 255
1042 438 1702 768 243 121 289 148 277 159 -30 27 -522 365 -533 365 -7 0
-135 -60 -286 -134z"/>
<path d="M3235 4720 c-200 -32 -398 -137 -529 -282 -125 -138 -183 -321 -193
-611 -6 -175 5 -249 57 -363 84 -186 266 -354 463 -429 190 -71 427 -74 621
-6 225 79 420 263 515 488 27 63 32 88 41 225 6 101 6 195 -1 278 -9 114 -13
132 -49 207 -22 46 -53 103 -70 128 -114 165 -297 291 -505 347 -82 22 -265
31 -350 18z m153 -121 c114 -56 133 -213 37 -298 -32 -28 -89 -51 -126 -51
-23 0 -125 -69 -194 -132 -83 -75 -114 -95 -168 -108 -114 -29 -220 73 -204
195 14 101 86 197 211 280 94 62 130 79 236 111 95 29 152 30 208 3z"/>
</g>
</svg>
