<?xml version="1.0" standalone="no"?>
<!DOCTYPE svg PUBLIC "-//W3C//DTD SVG 20010904//EN"
 "http://www.w3.org/TR/2001/REC-SVG-20010904/DTD/svg10.dtd">
<svg version="1.0" xmlns="http://www.w3.org/2000/svg"
 width="2048.000000pt" height="2048.000000pt" viewBox="0 0 2048.000000 2048.000000"
 preserveAspectRatio="xMidYMid meet">
<metadata>
Created by potrace 1.16, written by Peter Selinger 2001-2019
</metadata>
<g transform="translate(0.000000,2048.000000) scale(0.100000,-0.100000)"
fill="#000000" stroke="none">
<path d="M16430 18673 c-808 -29 -1631 -163 -2469 -404 -671 -193 -1557 -531
-2456 -938 -281 -127 -668 -315 -671 -326 -4 -12 549 -335 574 -335 9 0 96 36
192 81 760 352 1578 655 2446 904 1192 344 2106 485 2882 447 688 -34 1170
-162 1542 -410 186 -124 306 -241 429 -422 133 -194 221 -413 265 -660 130
-728 -129 -1714 -736 -2804 -324 -582 -837 -1318 -1330 -1910 -60 -72 -108
-132 -108 -135 0 -8 349 -421 355 -421 13 0 405 486 621 770 629 828 1132
1696 1429 2465 442 1146 457 2124 44 2847 -220 384 -601 713 -1073 925 -66 30
-213 86 -326 123 -369 123 -693 179 -1160 200 -213 9 -273 10 -450 3z"/>
<path d="M9230 16144 c-267 -158 -650 -393 -834 -512 -82 -53 -96 -66 -85 -76
8 -7 50 -42 94 -77 44 -35 132 -115 196 -176 64 -62 119 -113 122 -113 3 0 56
31 117 70 177 112 704 425 962 571 131 74 238 137 238 140 0 7 -502 313 -531
324 -8 3 -129 -63 -279 -151z"/>
<path d="M8001 15554 c-13 -10 -37 -46 -53 -82 -39 -86 -52 -217 -45 -452 6
-179 8 -195 70 -392 35 -111 251 -487 475 -826 46 -69 99 -160 119 -201 19
-42 52 -105 73 -141 48 -82 170 -387 210 -523 17 -56 35 -150 41 -208 l11
-106 -45 -84 c-27 -49 -51 -110 -58 -146 l-12 -63 -55 0 c-139 0 -425 -108
-514 -195 -138 -133 -208 -367 -225 -752 -11 -264 42 -422 194 -571 l64 -63
-56 -72 c-31 -39 -94 -112 -139 -162 -97 -107 -275 -318 -334 -395 -53 -72
-123 -220 -157 -335 -35 -118 -45 -303 -21 -415 20 -95 97 -253 174 -356 71
-96 216 -235 309 -297 99 -66 316 -182 414 -221 110 -44 298 -90 479 -115 439
-61 571 -76 795 -86 72 -3 202 -13 290 -21 212 -19 291 -18 502 6 219 25 325
43 473 81 323 83 485 154 745 325 205 135 327 245 441 401 106 142 170 283
199 433 22 118 30 319 16 407 -22 142 -111 365 -206 518 -26 41 -45 82 -43 91
2 11 28 24 79 38 90 26 213 94 281 155 56 50 125 182 154 291 22 86 14 332
-15 468 -11 51 -28 134 -36 184 -19 106 -73 273 -110 340 -36 65 -90 114 -162
148 -70 33 -103 42 -253 69 -241 44 -336 62 -352 67 -13 4 -58 96 -58 118 0 2
33 7 73 10 87 9 276 55 372 91 146 56 246 87 435 134 296 75 505 151 673 244
83 47 230 161 328 254 84 80 232 284 284 391 39 79 93 251 131 417 28 118 28
125 26 405 -3 383 2 413 107 620 43 85 82 169 85 187 7 32 -6 70 -28 85 -20
14 -73 8 -97 -10 -36 -27 -67 -39 -154 -62 -157 -42 -445 -139 -546 -185 -152
-68 -148 -67 -347 -148 -100 -42 -232 -104 -292 -139 -60 -35 -137 -79 -170
-98 -165 -93 -390 -327 -524 -545 -38 -60 -86 -135 -107 -166 -83 -121 -111
-168 -159 -261 -51 -98 -144 -246 -222 -352 -50 -68 -188 -193 -251 -226 l-43
-23 -65 48 c-35 26 -110 70 -166 97 l-103 50 0 45 c0 78 -57 164 -134 199 -79
36 -181 49 -276 36 -100 -14 -168 -46 -246 -116 -59 -53 -63 -55 -135 -62
l-74 -6 0 118 c0 142 -20 215 -96 367 -82 162 -155 272 -215 324 -76 66 -311
227 -428 293 -53 30 -137 78 -185 107 -48 28 -133 75 -189 104 -108 56 -130
72 -302 218 -109 92 -271 261 -354 370 -24 31 -62 92 -84 136 -47 92 -126 205
-145 205 -7 0 -23 -7 -36 -16z m255 -520 c82 -109 154 -191 260 -293 161 -156
217 -198 350 -264 188 -93 396 -248 641 -480 66 -63 107 -136 183 -323 45
-110 62 -187 62 -294 1 -107 -2 -114 -75 -141 -88 -32 -253 -119 -334 -175
-66 -46 -255 -205 -282 -238 -21 -25 -28 -20 -35 27 -22 143 -125 467 -190
596 -76 154 -185 355 -219 406 -75 114 -343 580 -405 705 -103 209 -119 278
-126 551 l-5 194 31 -60 c16 -33 81 -128 144 -211z m5559 66 c-16 -11 -43 -22
-60 -26 -16 -4 -57 -19 -90 -34 -33 -16 -87 -40 -120 -53 -83 -35 -227 -111
-310 -165 -79 -51 -242 -212 -320 -317 -63 -85 -198 -344 -230 -441 -13 -38
-39 -104 -58 -145 -63 -136 -95 -213 -118 -284 -13 -38 -33 -92 -45 -120 -12
-27 -36 -87 -53 -131 -96 -250 -371 -531 -660 -674 -109 -54 -166 -74 -181
-65 -6 4 -23 32 -39 63 -16 31 -49 85 -74 119 l-46 62 42 24 c57 34 172 129
225 186 43 47 106 134 131 183 8 15 22 36 31 46 30 32 92 116 101 137 10 23 9
21 114 185 45 69 107 176 139 239 80 156 101 191 185 301 98 129 243 275 357
361 52 39 100 76 107 82 32 30 115 82 214 134 323 169 521 265 605 294 51 18
107 38 123 45 46 20 64 16 30 -6z m-3164 -1760 c12 -7 19 -21 19 -38 0 -21
-28 -55 -128 -157 -70 -72 -151 -162 -180 -200 -64 -85 -155 -266 -178 -355
-18 -73 -23 -184 -11 -246 8 -38 6 -42 -15 -48 -13 -3 -62 -6 -109 -6 -68 0
-89 3 -100 17 -10 12 -14 52 -14 157 0 130 2 146 26 204 56 131 201 330 355
488 135 137 210 185 302 193 7 0 22 -4 33 -9z m-829 -467 c-64 -74 -105 -149
-132 -241 -19 -63 -22 -91 -18 -198 2 -68 1 -124 -3 -124 -3 0 -73 7 -155 16
-93 10 -202 14 -291 12 -162 -5 -155 -14 -63 93 128 148 234 249 381 362 55
42 255 127 322 136 5 0 -14 -25 -41 -56z m855 23 c162 -55 264 -130 538 -398
66 -65 130 -125 143 -133 12 -9 22 -19 22 -23 0 -4 -168 -7 -372 -7 -205 -1
-435 -5 -510 -9 l-138 -9 0 101 c0 101 18 198 47 257 23 45 119 186 148 218
31 33 34 33 122 3z m483 -830 c636 -34 787 -46 886 -72 73 -19 194 -75 217
-101 31 -36 56 -127 77 -285 11 -86 25 -179 30 -208 14 -71 13 -314 -1 -360
-27 -90 -164 -218 -262 -244 -98 -26 -227 -37 -514 -42 -291 -6 -956 7 -1313
26 -107 6 -325 15 -485 20 -974 31 -1139 47 -1313 125 -81 36 -163 121 -196
203 -51 128 -59 384 -16 559 49 202 96 281 197 324 52 22 252 45 483 55 85 3
232 10 325 14 280 13 1552 3 1885 -14z m-2383 -1499 c45 -10 150 -18 308 -22
269 -6 377 -11 580 -25 77 -6 361 -15 630 -20 611 -13 1019 -27 1155 -39 58
-6 139 -10 181 -11 l77 0 16 -51 c10 -28 57 -131 106 -228 90 -180 132 -285
144 -356 8 -49 -18 -291 -39 -351 -42 -123 -133 -241 -267 -345 -276 -213
-401 -263 -878 -348 -207 -37 -302 -45 -530 -45 -370 1 -697 41 -1090 133 -47
11 -132 29 -189 41 -134 27 -341 96 -461 153 -52 24 -126 59 -163 76 -202 91
-387 301 -387 440 0 77 62 246 109 298 9 10 45 54 80 98 34 44 70 89 79 100
213 260 241 312 308 563 2 9 25 4 83 -17 44 -16 110 -36 148 -44z"/>
<path d="M10013 10178 c-45 -24 -61 -36 -133 -102 -25 -23 -63 -54 -85 -71
-22 -16 -61 -49 -87 -72 -27 -24 -60 -46 -74 -49 -66 -17 -151 44 -245 173
-65 89 -92 108 -155 108 -59 0 -92 -23 -115 -77 -16 -40 0 -103 41 -164 30
-42 196 -162 282 -202 36 -17 36 -18 36 -77 -1 -33 2 -100 7 -150 13 -153 -24
-223 -124 -233 -49 -4 -50 -4 -106 52 -31 30 -61 69 -66 86 -11 30 -47 49 -68
35 -19 -11 -12 -82 13 -137 29 -65 94 -140 140 -162 66 -31 225 -17 288 26 34
23 33 24 81 -15 121 -97 241 -86 372 35 75 69 99 109 91 144 -8 31 -18 30 -71
-6 -51 -35 -135 -59 -187 -53 -37 5 -109 57 -127 91 -5 10 -3 48 4 92 14 81 6
166 -21 207 -17 28 -18 53 -1 53 42 0 293 175 361 252 81 92 109 191 64 222
-31 22 -66 20 -115 -6z"/>
<path d="M8976 9649 c-50 -40 -21 -119 44 -119 17 0 39 9 50 20 41 41 12 120
-44 120 -13 0 -35 -9 -50 -21z"/>
<path d="M7390 14953 c-1196 -846 -2367 -1796 -3191 -2589 -90 -87 -165 -164
-167 -171 -3 -11 182 -259 312 -416 l39 -49 156 154 c965 952 1986 1807 3049
2552 100 70 182 134 182 142 0 7 -13 60 -30 116 -39 137 -77 300 -85 371 -4
32 -12 57 -19 57 -6 0 -117 -75 -246 -167z"/>
<path d="M3112 11238 c-233 -273 -471 -564 -597 -733 -79 -104 -202 -264 -274
-355 -257 -322 -643 -879 -843 -1215 -283 -474 -467 -843 -623 -1245 -38 -96
-86 -218 -107 -270 -60 -146 -181 -644 -232 -955 -52 -313 -59 -686 -17 -931
113 -665 451 -1179 1008 -1530 150 -95 464 -245 564 -269 l26 -6 7 129 c8 159
28 297 61 421 14 52 22 97 18 101 -5 4 -37 19 -73 35 -229 98 -465 268 -618
445 -262 303 -379 652 -399 1195 -11 327 36 628 157 1000 26 83 65 202 85 265
82 257 362 851 577 1225 286 499 776 1227 1023 1520 202 240 547 635 653 747
l34 36 -64 84 c-36 45 -111 151 -166 235 -56 83 -105 154 -111 157 -5 3 -45
-36 -89 -86z"/>
<path d="M15985 10676 c-176 -178 -390 -388 -475 -467 -932 -863 -1709 -1501
-2737 -2247 -699 -507 -1602 -1092 -2316 -1502 -70 -40 -130 -76 -132 -80 -2
-3 127 -84 286 -179 l289 -174 319 192 c1056 634 2010 1296 2921 2025 516 414
843 694 1345 1155 221 203 1165 1145 1165 1162 0 11 -327 433 -338 436 -4 1
-151 -143 -327 -321z"/>
<path d="M8980 5676 c-151 -74 -320 -154 -375 -179 -55 -25 -172 -77 -260
-117 -1213 -546 -2409 -935 -3445 -1119 l-205 -37 5 -94 c3 -52 5 -186 5 -297
0 -198 0 -203 20 -203 12 0 110 16 219 35 869 154 1882 455 2876 853 636 255
1042 438 1702 768 243 121 289 148 277 159 -30 27 -522 365 -533 365 -7 0
-135 -60 -286 -134z"/>
<path d="M3235 4720 c-200 -32 -398 -137 -529 -282 -125 -138 -183 -321 -193
-611 -6 -175 5 -249 57 -363 84 -186 266 -354 463 -429 190 -71 427 -74 621
-6 225 79 420 263 515 488 27 63 32 88 41 225 6 101 6 195 -1 278 -9 114 -13
132 -49 207 -22 46 -53 103 -70 128 -114 165 -297 291 -505 347 -82 22 -265
31 -350 18z m153 -121 c114 -56 133 -213 37 -298 -32 -28 -89 -51 -126 -51
-23 0 -125 -69 -194 -132 -83 -75 -114 -95 -168 -108 -114 -29 -220 73 -204
195 14 101 86 197 211 280 94 62 130 79 236 111 95 29 152 30 208 3z"/>
</g>
</svg>
